<?xml version="1.0" encoding="UTF-8" standalone="no"?>
<svg
   version="1.1"
   id="繝ｬ繧､繝､繝ｼ_1"
   x="0px"
   y="0px"
   viewBox="0 0 56.599998 56.599998"
   enable-background="new 0 0 84 84"
   xml:space="preserve"
   sodipodi:docname="gift.svg"
   width="56.599998"
   height="56.599998"
   inkscape:version="1.2-dev (1a5ce3f, 2021-04-08)"
   xmlns:inkscape="http://www.inkscape.org/namespaces/inkscape"
   xmlns:sodipodi="http://sodipodi.sourceforge.net/DTD/sodipodi-0.dtd"
   xmlns="http://www.w3.org/2000/svg"
   xmlns:svg="http://www.w3.org/2000/svg"><defs
   id="defs9" /><sodipodi:namedview
   id="namedview7"
   pagecolor="#505050"
   bordercolor="#eeeeee"
   borderopacity="1"
   objecttolerance="10.0"
   gridtolerance="10.0"
   guidetolerance="10.0"
   inkscape:pageshadow="0"
   inkscape:pageopacity="0"
   inkscape:pagecheckerboard="0"
   showgrid="false"
   fit-margin-top="0"
   fit-margin-left="0"
   fit-margin-right="0"
   fit-margin-bottom="0"
   inkscape:zoom="7.3404418"
   inkscape:cx="10.762295"
   inkscape:cy="38.212959"
   inkscape:window-width="1837"
   inkscape:window-height="1057"
   inkscape:window-x="75"
   inkscape:window-y="-8"
   inkscape:window-maximized="1"
   inkscape:current-layer="繝ｬ繧､繝､繝ｼ_1" />
<path
   fill="#505050"
   d="m 35.937615,14 c 4.6,-1.5 9.2,-4 10.1,-7.2 0.3,-1.2 0.4,-3.6 -2.9,-5.6 -1.3,-0.8 -2.6,-1.2 -3.9,-1.2 -4.9,0 -8.7,5.2 -10.8,9 -2.1,-3.8 -5.9,-9 -10.8,-9 -1.3,0 -2.7,0.4 -3.9,1.2 -3.3,2 -3.2,4.4 -2.9,5.6 0.9,3.2 5.5,5.8 10.1,7.2 H 1.6376147 v 19.4 h 4.3 V 56.6 H 50.637615 V 33.4 h 4.3 V 14 Z m -13,38.8 H 9.8376147 V 33.4 H 22.937615 Z m 0,-23.2 H 5.5376147 V 17.9 H 22.937615 Z m -8.5,-23.8 c -0.1,-0.5 0.8,-1.1 1.2,-1.3 0.7,-0.4 1.3,-0.6 1.9,-0.6 2.9,0 5.9,4.1 7.6,7.3 -4.6,-0.9 -10.2,-3.5 -10.7,-5.4 z m 24.7,-1.9 c 0.6,0 1.3,0.2 1.9,0.6 0.4,0.2 1.3,0.8 1.2,1.3 -0.5,1.9 -6.1,4.6 -10.7,5.4 1.8,-3.2 4.7,-7.3 7.6,-7.3 z m 7.7,48.9 h -13.1 V 33.4 h 13.1 z m 4.3,-23.2 h -17.4 V 17.9 h 17.4 z"
   id="path2" />
<rect
   x="-72.800003"
   y="-15.3"
   transform="rotate(-90)"
   fill="none"
   width="84"
   height="84"
   id="rect4" />
</svg>
