<svg xml:space="preserve" width="339.71" height="125.85" xmlns="http://www.w3.org/2000/svg"><defs><path id="a" d="M527.16 141.91h155.81v45.6H527.16z"/></defs><path style="fill:#28282b;fill-opacity:1;stroke:none;stroke-width:1px;stroke-linecap:butt;stroke-linejoin:miter;stroke-opacity:1" d="M500 134.18v-2.38h223.01c3.8 0 6.9 2.57 5.46 7.41L711 191.46c-.48 1.37-.5 1.48-2.39 1.48h-4.3z" transform="translate(-389.12 -88.44)"/><path style="fill:#b00;fill-opacity:1;stroke:none;stroke-width:.935041px;stroke-linecap:butt;stroke-linejoin:miter;stroke-opacity:1" d="m507.96 138.55-21.44 54.95h203.65c.94 0 1.72-.92 1.87-1.47l16.65-49.76c.82-2.75-1.52-3.71-3.38-3.71z" transform="translate(-420.9 -102.43) scale(1.06947)"/><path opacity=".8" fill="none" d="M-389.12-88.44h720v300h-720z"/><g aria-label="INFO" style="font-size:64.791px;line-height:1.25;font-family:Roboto;-inkscape-font-specification:Roboto;fill:#28282b;stroke:#d5d5d5;stroke-width:2;fill-opacity:1;stroke-opacity:1"><path d="M585.78 146.85v36.93h-5.83v-36.93zM601.98 154.5v29.28h-5.83v-31.42c0-2.2.9-3.9 2.52-4.67 1.62-.78 3.57-.45 5.25.9l34.99 27.54v-29.28h5.83v31.42c0 2.2-.9 3.89-2.53 4.67-1.62.78-3.56.45-5.24-.9zM660.29 152.68h42.76v-5.83h-48.6v36.93h5.84v-15.55h35.5v-5.83h-35.5zM723.46 146.85c-5.9 0-10.69 4.8-10.69 10.69v15.55c0 5.9 4.8 10.69 10.7 10.69h27.2c5.9 0 10.7-4.8 10.7-10.7v-15.54c0-5.9-4.8-10.7-10.7-10.7zm0 31.1a4.9 4.9 0 0 1-4.86-4.86v-15.55a4.9 4.9 0 0 1 4.86-4.86h27.21a4.9 4.9 0 0 1 4.86 4.86v15.55a4.9 4.9 0 0 1-4.86 4.86z" style="font-family:GTseriesFont;-inkscape-font-specification:GTseriesFont;fill:#28282b;fill-opacity:1;stroke:#d5d5d5;stroke-opacity:1" transform="matrix(1 0 -.3338 1 -389.12 -88.44)"/></g><g style="fill:#28282b;fill-opacity:1" fill="#FFF"><path d="M493.99 92.44h84.58c1.34 0 1.68.28 1.26 1.62-.4 1.18-12.26 34.22-13.83 38.94-.27.84-1.16 1.04-1.59 1.04H527c-6.36 0-6.54.05-9.01 7.59-5.03 14.91-15.19 44.97-16.91 50.27-.26.77-.64 1.19-1.34 1.19H462.3" style="fill:#28282b;fill-opacity:1" transform="translate(-389.12 -88.44)"/><path d="M496.3 92.4c-3.59-.12-13.98-.5-23.08.48-39.18 4.27-67.48 25.01-77.17 54.98-11.52 35.71 12.02 56.21 28.27 61.96.88.3 1.84-2.04 2.17-2.85.34-.83 2.31-6.05 2.31-6.05l3.39-7.91 27.56-63.12c2.54-.3 7.02-.77 10.56-.81 10.04-.18 15.32-2.21 17.81-9.26 2.74-7.8 8.58-24.68 8.95-25.88.36-1.17.06-1.5-.77-1.54z" style="fill:#28282b;fill-opacity:1" transform="translate(-389.12 -88.44)"/><path d="M430.58 193.09H477l14.8-49.38-53.13-1.74c3.22 13.47-8.1 51.12-8.1 51.12z" style="fill:#28282b;fill-opacity:1" transform="translate(-389.12 -88.44)"/></g><path style="fill:#d5d5d5;fill-opacity:1;stroke:none;stroke-width:.5;stroke-linecap:butt;stroke-linejoin:miter;stroke-miterlimit:4;stroke-dasharray:none;stroke-opacity:1" d="M497.32 93.94h36.94l-8.86 23.42c-2.07 7.73-8.75 11-17.96 11h-10.71c-2.74 0-3.62.57-4.59 3.24l-20.92 59.94h-7.15l14.08-40.47c.36-.9-.08-1.81-1.05-1.82h-17.6c-7.75 0-13.46 4.56-16.5 13l-12.1 29.29-4.75 10.45c-10.28-3.78-17.03-14.9-17.03-31.08 0-20.1 26.63-41.5 54.13-41.5l7.94-.33c8.09-.2 14.32-.78 17.93-12.24z" transform="translate(-389.12 -88.44)"/></svg>