<svg xml:space="preserve" width="339.71" height="125.85" xmlns="http://www.w3.org/2000/svg"><defs><path id="a" d="M527.16 141.91h155.81v45.6H527.16z"/></defs><path style="fill:#222;fill-opacity:1;stroke:none;stroke-width:1px;stroke-linecap:butt;stroke-linejoin:miter;stroke-opacity:1" d="M500 136.43v-2.4h223.01c3.8 0 6.9 2.58 5.46 7.42L711 193.7c-.48 1.37-.5 1.49-2.39 1.49h-4.3z" transform="translate(-389.12 -88.44)"/><path style="fill:#008ccc;fill-opacity:1;stroke:none;stroke-width:.935041px;stroke-linecap:butt;stroke-linejoin:miter;stroke-opacity:1" d="m507.96 140.64-21.44 54.95h203.65c.94 0 1.72-.92 1.87-1.46l16.65-49.77c.82-2.74-1.52-3.7-3.38-3.7z" transform="translate(-420.9 -102.43) scale(1.06947)"/><path opacity=".8" fill="none" d="M-389.12-88.44h720v300h-720z"/><g style="fill:#222;fill-opacity:1" fill="#fff"><path d="M526.03 99.64c1.08-3.17 1.87-3.7 5.27-3.7h36.61c6.71 0 6.93 1.4 5.47 5.98-1.68 5.08-10.7 30.15-12.26 34.86-1.36 4.34-2.46 3.84-6.9 3.87l-31.14.2c-4.7.03-5.31.12-7.34 6.3a10132.7 10132.7 0 0 0-14.67 44.75c-1.47 3.54-1.5 3.53-4.06 3.65l-26.83.04s14.24-43.06 21.93-63.9c.8-1.87 1.57-3.34 4.29-3.34h11.4c7.18 0 8.33-1.43 11.72-10.97 0 0 6.1-16.54 6.5-17.74M496.78 95.94c-3.58-.11-13.98-.48-23.07.5-39.19 4.26-67.49 25-77.17 54.97-11.52 35.7 13.04 56.15 29.3 61.9.87.3 1.45.18 1.78-.63.34-.83 3.76-9.43 3.97-10.1.19-.65-.23-1.1-1.09-1.45-15.22-6.42-18.24-23.47-13.3-36.76 5.18-14 24.88-25.08 40.49-26.96 2.54-.3 8.31-.76 11.85-.8 11.82-.21 15.32-3.34 17.81-10.4 2.74-7.8 9.83-27.52 10.2-28.72.37-1.18.06-1.51-.77-1.55z" style="fill:#222;fill-opacity:1" transform="translate(-420.9 -102.43) scale(1.06947)"/><path d="M468.95 149.25h-9.88c-6.53 0-12.9 4.46-15.65 12.06-1.75 4.85-9.36 26.18-10.8 30.7-.7 2.23-.67 3.66 2.13 3.58h35.42s42.24-67.24 26.4-67.24c-4.09 0-5.84.44-8.87 3.95-3.02 3.5-8.38 9.96-11.43 13.2-3.04 3.25-5.1 3.75-7.32 3.75z" style="fill:#222;fill-opacity:1" transform="translate(-420.9 -102.43) scale(1.06947)"/></g><g aria-label="INFO" style="font-size:64.791px;line-height:1.25;font-family:Roboto;-inkscape-font-specification:Roboto;fill:#222;stroke:#d3d5d7;stroke-width:2"><path d="M585.78 146.85v36.93h-5.83v-36.93zM601.98 154.5v29.28h-5.83v-31.42c0-2.2.9-3.9 2.52-4.67 1.62-.78 3.57-.45 5.25.9l34.99 27.54v-29.28h5.83v31.42c0 2.2-.9 3.89-2.53 4.67-1.62.78-3.56.45-5.24-.9zM660.29 152.68h42.76v-5.83h-48.6v36.93h5.84v-15.55h35.5v-5.83h-35.5zM723.46 146.85c-5.9 0-10.69 4.8-10.69 10.69v15.55c0 5.9 4.8 10.69 10.7 10.69h27.2c5.9 0 10.7-4.8 10.7-10.7v-15.54c0-5.9-4.8-10.7-10.7-10.7zm0 31.1a4.9 4.9 0 0 1-4.86-4.86v-15.55a4.9 4.9 0 0 1 4.86-4.86h27.21a4.9 4.9 0 0 1 4.86 4.86v15.55a4.9 4.9 0 0 1-4.86 4.86z" style="font-family:GTseriesFont;-inkscape-font-specification:GTseriesFont" transform="matrix(1 0 -.3338 1 -389.12 -88.44)"/></g><g style="fill:#d9dbdb;fill-opacity:1" fill="#FFF"><path d="M533.73 94.1c.55-1.6.97-1.66 2.25-1.66h42.59c1.34 0 1.68.28 1.26 1.62-.4 1.18-12.26 34.22-13.83 38.93-.27.85-1.16 1.05-1.59 1.05H527c-6.36 0-6.54.05-9.01 7.59-5.03 14.91-15.19 44.97-16.91 50.27-.26.77-.64 1.19-1.34 1.19H471.8c-.7 0-.83-.32-.62-.93 2.51-7.64 20.49-59.4 20.92-60.48.8-1.86 1.57-3.33 4.29-3.33h11.4c7.18 0 14.21-1.45 17.6-11 0 0 7.93-22.07 8.33-23.26M496.3 92.4c-3.59-.12-13.98-.5-23.08.48-39.18 4.27-67.48 25.01-77.17 54.98-11.52 35.71 12.02 56.21 28.27 61.96.88.3 1.46.18 1.8-.63.33-.83 2.1-5.38 2.3-6.05.2-.65-.23-1.11-1.08-1.45-16.55-6.98-22.1-23.63-15.9-40.3 6.72-18.19 28.42-29.11 48.31-31.5 2.54-.3 7.02-.77 10.56-.81 10.04-.18 15.32-2.21 17.81-9.26 2.74-7.8 8.58-24.68 8.95-25.88.36-1.17.06-1.5-.77-1.54z" style="fill:#d9dbdb;fill-opacity:1" transform="translate(-389.12 -88.44)"/><path d="M477.1 149.25h-18.03c-6.53 0-12.9 4.46-15.65 12.06-1.75 4.85-9.36 26.18-10.8 30.7-.22.68.13 1.08.7 1.08h29.33c.84 0 1.2-.37 1.4-1 1.96-6.02 14.1-40.73 14.22-41.37.1-.7-.19-1.47-1.17-1.47z" style="fill:#d9dbdb;fill-opacity:1" transform="translate(-389.12 -88.44)"/></g></svg>