<?xml version="1.0" encoding="utf-8"?>
<!-- Generator: Adobe Illustrator 24.2.3, SVG Export Plug-In . SVG Version: 6.00 Build 0)  -->
<svg version="1.1" id="繝ｬ繧､繝､繝ｼ_1" xmlns="http://www.w3.org/2000/svg" xmlns:xlink="http://www.w3.org/1999/xlink" x="0px"
	 y="0px" viewBox="0 0 84 84" enable-background="new 0 0 84 84" xml:space="preserve">
<path fill="#505050" d="M49.6,25.2c4.6-1.5,9.2-4,10.1-7.2c0.3-1.2,0.4-3.6-2.9-5.6c-1.3-0.8-2.6-1.2-3.9-1.2c-4.9,0-8.7,5.2-10.8,9
	c-2.1-3.8-5.9-9-10.8-9c-1.3,0-2.7,0.4-3.9,1.2c-3.3,2-3.2,4.4-2.9,5.6c0.9,3.2,5.5,5.8,10.1,7.2H15.3v19.4h4.3v23.2h44.7V44.6h4.3
	V25.2H49.6z M36.6,64H23.5V44.6h13.1V64z M36.6,40.8H19.2V29.1h17.4V40.8z M28.1,17c-0.1-0.5,0.8-1.1,1.2-1.3
	c0.7-0.4,1.3-0.6,1.9-0.6c2.9,0,5.9,4.1,7.6,7.3C34.2,21.5,28.6,18.9,28.1,17z M52.8,15.1c0.6,0,1.3,0.2,1.9,0.6
	c0.4,0.2,1.3,0.8,1.2,1.3c-0.5,1.9-6.1,4.6-10.7,5.4C47,19.2,49.9,15.1,52.8,15.1z M60.5,64H47.4V44.6h13.1V64z M64.8,40.8H47.4
	V29.1h17.4V40.8z"/>
<rect x="0" y="0" transform="matrix(6.089269e-11 -1 1 6.089269e-11 -2.559311e-09 84)" fill="none" width="84" height="84"/>
</svg>
