<?xml version="1.0" encoding="utf-8"?>
<!-- Generator: Adobe Illustrator 26.0.2, SVG Export Plug-In . SVG Version: 6.00 Build 0)  -->
<svg version="1.1" id="レイヤー_1" xmlns="http://www.w3.org/2000/svg" xmlns:xlink="http://www.w3.org/1999/xlink" x="0px"
	 y="0px" viewBox="0 0 640 80" enable-background="new 0 0 640 80" xml:space="preserve">
<g>
	<rect fill="none" width="640" height="80"/>
	<g>
		<g>
			<path fill="#FFFFFF" d="M80.3,12.4L64.2,64.4V12.4h-16v23.6h-13V12.4h-16v55.1h16V43h13v24.5h15h1H72l3.7-12H93l3.4,12h16.8
				L97.2,12.4H80.3z M77.3,50.1l7.4-24.4l6.8,24.4H77.3z M133.7,36.4h20.7v28.4c0,0-0.9,0.2-2.6,0.7c-1.7,0.6-1.9,0.7-4,1.2
				c0,0-7.4,1.9-12.4,1.9c-8.2,0-14.5-2.4-19-7.3c-4.5-4.9-6.8-11.8-6.8-20.7c0-8.6,2.4-15.6,7.2-21c4.8-5.3,11-7.8,18.8-8
				c9.3-0.3,18,3.2,18.3,16.6l-7.2,0.1l-0.2-2.6c-1-5.7-3.6-8.7-9.1-8.5c-4.4,0.2-6.8,1.6-8.2,4.5c-1.6,3.4-2.2,9.9-2.2,19.3
				c0,8.8,0.6,14.7,1.8,17.9c1.2,3.2,3.5,4.7,6.8,4.7c4,0,5.9-2.2,5.9-6.6V43.3h-8V36.4z M173.3,60.6h21.2v7h-37.2V12.4H193v7h-19.7
				v16.7h16.6v7h-16.6V60.6z M237.8,28.5c0.1-4.4-1.7-9.4-4.9-12.2c-2.8-2.5-6.6-3.9-12.8-3.9h-23.7v55.1h16V44.4l12.2,23.1H242
				l-14-25.2C235.8,37.7,237.7,33.8,237.8,28.5 M215.6,38.4h-3.2v-19h3.2c6.1,0,9.1,3.2,9.1,9.5C224.7,35.3,221.7,38.4,215.6,38.4
				 M319.1,12.4l-13.5,34.8v20.3h-16V47.1l-12.5-29.2H267v49.6h-17V17.9h-13.6v-5.5h38.4h2.8h13.8l11.2,26.6l10.1-26.6H319.1z"/>
		</g>
		<g>
			<rect x="360.8" y="12.6" fill="#FFFFFF" width="2" height="54.8"/>
		</g>
		<g>
			<path fill="#FFFFFF" d="M403.7,40c0-10.5,5.4-17.8,15.6-17.8c8.3,0,12.7,4.9,13.5,12l-4.7,0.5c-0.7-5.2-3.8-8.6-9.1-8.6
				c-6.7,0-10.5,5.6-10.5,13.9c0,8,3.6,14.1,10.6,14.1c4.9,0,8.3-3.2,9.2-8.3l4.4,0.8c-1.3,6.5-5.4,11.6-13.7,11.6
				C408.5,58,403.7,50,403.7,40z"/>
			<path fill="#FFFFFF" d="M437.8,45.2c0-7.8,4.4-12.6,11.2-12.6c6.8,0,11.2,4.8,11.2,12.6s-4.4,12.6-11.2,12.6
				C442.3,57.8,437.8,53,437.8,45.2z M455.9,45.2c0-6-2.6-9.1-6.9-9.1c-4.3,0-6.9,3.1-6.9,9.1s2.6,9.1,6.9,9.1
				C453.4,54.2,455.9,51.2,455.9,45.2z"/>
			<path fill="#FFFFFF" d="M471.1,57.2H467V22.3h4.1V57.2z"/>
			<path fill="#FFFFFF" d="M484.3,57.2h-4.1V22.3h4.1V57.2z"/>
			<path fill="#FFFFFF" d="M512.3,46.4h-17.1c0,4.7,2.9,7.8,7.2,7.8c3.1,0,5.3-1.6,6.4-4.6l3.4,1.5c-1.7,4.4-5.2,6.7-10.1,6.7
				c-6.9,0-11-4.4-11-12.3c0-8,4-12.9,10.9-12.9c6.5,0,10.3,3.7,10.3,10.9V46.4z M508.1,42.5c0-4.4-2.3-6.7-6.2-6.7
				c-4.2,0-6.6,2.7-6.7,7.3h13V42.5z"/>
			<path fill="#FFFFFF" d="M516.8,45.2c0-7.8,4.2-12.6,11.1-12.6c5.6,0,9.3,3.2,9.9,8.8l-4.2,0.5c-0.4-3.7-2.6-5.7-5.8-5.7
				c-4.1,0-6.6,3.4-6.6,9c0,5.8,2.5,9.1,6.8,9.1c3.3,0,5.3-2,5.9-5.7l3.9,0.6c-0.9,5.5-4.5,8.7-9.9,8.7
				C521.2,57.8,516.8,52.9,516.8,45.2z"/>
			<path fill="#FFFFFF" d="M540.7,33.2h4.5v-6.3l4.1-1.7v8h6v3.4h-6v13.3c0,2.7,1.1,3.9,3.5,3.9c1.1,0,1.7-0.1,2.5-0.3v3.8
				c-1.1,0.3-2,0.4-3.6,0.4c-5.2,0-6.5-3.2-6.5-7.7V36.5h-4.5V33.2z"/>
			<path fill="#FFFFFF" d="M561,23.5h4.7v5.2H561V23.5z M561.3,33.2h4.1v24.1h-4.1V33.2z"/>
			<path fill="#FFFFFF" d="M571.9,45.2c0-7.8,4.4-12.6,11.2-12.6c6.8,0,11.2,4.8,11.2,12.6s-4.4,12.6-11.2,12.6
				C576.4,57.8,571.9,53,571.9,45.2z M590,45.2c0-6-2.6-9.1-6.9-9.1c-4.3,0-6.9,3.1-6.9,9.1s2.6,9.1,6.9,9.1
				C587.5,54.2,590,51.2,590,45.2z"/>
			<path fill="#FFFFFF" d="M600.9,33.2h3.9v4.8c1.6-3.6,4.2-5.3,8-5.3c5.3,0,8,3.3,8,9.7v15h-4.1V42.5c0-4.2-1.8-6.4-5.3-6.4
				c-4,0-6.5,3.2-6.5,8.6v12.6h-4.1V33.2z"/>
		</g>
	</g>
</g>
</svg>
