<?xml version="1.0" encoding="UTF-8" standalone="no"?>
<svg
   width="180"
   height="40"
   viewBox="0 20 47.625 10"
   version="1.1"
   id="svg5"
   inkscape:version="1.2-dev (1a5ce3f, 2021-04-08)"
   sodipodi:docname="ucd-auto copy.svg"
   xmlns:inkscape="http://www.inkscape.org/namespaces/inkscape"
   xmlns:sodipodi="http://sodipodi.sourceforge.net/DTD/sodipodi-0.dtd"
   xmlns="http://www.w3.org/2000/svg"
   xmlns:svg="http://www.w3.org/2000/svg">
  <sodipodi:namedview
     id="namedview7"
     pagecolor="#505050"
     bordercolor="#eeeeee"
     borderopacity="1"
     objecttolerance="10.0"
     gridtolerance="10.0"
     guidetolerance="10.0"
     inkscape:pageshadow="0"
     inkscape:pageopacity="0"
     inkscape:pagecheckerboard="0"
     inkscape:document-units="px"
     showgrid="false"
     inkscape:zoom="4.8444444"
     inkscape:cx="72.454129"
     inkscape:cy="21.777523"
     inkscape:window-width="1837"
     inkscape:window-height="1057"
     inkscape:window-x="75"
     inkscape:window-y="-8"
     inkscape:window-maximized="1"
     inkscape:current-layer="layer2" />
  <defs
     id="defs2" />
  <g
     inkscape:groupmode="layer"
     id="layer2"
     inkscape:label="Layer 2" />
  <g
     inkscape:label="Layer 1"
     inkscape:groupmode="layer"
     id="layer1">
    <path
       style="fill:#e9e9e9;stroke:none;stroke-width:0.264583px;stroke-linecap:butt;stroke-linejoin:miter;stroke-opacity:1;fill-opacity:1"
       d="m 2.0468167,21.002077 h 2.027511 v 8.167965 h -2.027511 z"
       id="path1632"
       sodipodi:nodetypes="ccccc" />
    <path
       style="fill:#e9e9e9;fill-opacity:1;stroke:none;stroke-width:0.280484px;stroke-linecap:butt;stroke-linejoin:miter;stroke-opacity:1"
       d="m 6.1790752,21.002146 2.2785359,-6.9e-5 v 8.167965 H 6.1790752 Z"
       id="path1632-7"
       sodipodi:nodetypes="ccccc" />
    <rect
       style="fill:#e9e9e9;fill-opacity:1;stroke:none;stroke-width:4.56499"
       id="rect2352"
       width="3.3598723"
       height="0.96548051"
       x="3.4178009"
       y="24.709522" />
    <path
       style="fill:#e9e9e9;fill-opacity:1;stroke:none;stroke-width:0.264583px;stroke-linecap:butt;stroke-linejoin:miter;stroke-opacity:1"
       d="m 8.4576109,29.170098 2.2012941,-8.167952 h 2.722655 l 2.394392,8.167952 h -2.49094 L 12.821581,27.625273 H 11.1125 l 0.343801,-1.023486 h 0.940469 l -0.59901,-3.035829 h -0.464915 l -0.828417,3.035829 h 1.318 l -0.352519,1.023486 h -1.390292 l -0.4055022,1.544825 z"
       id="path2467"
       sodipodi:nodetypes="ccccccccccccccccc" />
    <path
       style="fill:#e9e9e9;stroke:none;stroke-width:0.264583px;stroke-linecap:butt;stroke-linejoin:miter;stroke-opacity:1;fill-opacity:1"
       d="m 18.653083,24.555045 h 3.031609 v 3.95847 c -0.01198,0.792642 -1.669375,1.016078 -2.626107,1.042719 -1.612306,-0.06891 -3.835887,-1.203247 -3.861922,-3.707445 v -1.448221 c 0.05179,-2.046838 1.033564,-3.620916 3.842613,-3.630206 2.099949,0.02274 2.638168,0.711575 2.664726,1.834413 v 0.733765 h -1.081338 v -0.482741 c -0.0181,-0.595097 -0.372035,-1.186866 -1.255125,-1.197195 -0.734697,0.004 -1.379223,0.548465 -1.390292,1.158576 v 4.499139 c -0.01207,0.814662 0.45012,1.312351 1.100648,1.313054 0.650893,6.8e-5 0.988072,-0.251633 0.96548,-1.023409 v -2.02751 h -1.390292 z"
       id="path5501"
       sodipodi:nodetypes="ccccccccccccccccccc" />
    <path
       style="fill:#e9e9e9;stroke:none;stroke-width:0.264583px;stroke-linecap:butt;stroke-linejoin:miter;stroke-opacity:1;fill-opacity:1"
       d="m 22.109377,21.021387 h 5.44539 l 4.7e-5,1.216505 h -2.819203 v 2.317153 h 2.336463 v 1.197196 h -2.355773 v 2.375082 h 2.838466 v 1.062029 h -5.44539 z"
       id="path8069"
       sodipodi:nodetypes="ccccccccccccc" />
    <path
       style="fill:#e9e9e9;fill-opacity:1;stroke:none;stroke-width:0.264583px;stroke-linecap:butt;stroke-linejoin:miter;stroke-opacity:1"
       d="m 28.095575,29.150783 -9.3e-5,-6.256364 h 2.548824 l 4.5e-5,2.143367 h 0.424812 c 0.679807,3.58e-4 1.039463,-0.394444 1.042787,-0.984791 V 23.203479 C 32.10525,22.67312 31.884601,22.167002 31.1464,22.141344 h -0.502094 v 1.583388 H 28.095575 V 21.06009 l 4.34457,0 c 1.027187,-2.76e-4 1.727788,0.806492 1.757174,2.027429 v 0.463431 c -0.02284,0.929111 -0.379985,1.370371 -1.583386,1.757174 l 2.220603,3.842663 H 32.015334 L 30.837446,26.29291 h -0.251023 v 2.857873 z"
       id="path8789"
       sodipodi:nodetypes="cccccccccccccccccccccc" />
    <rect
       style="fill:#e9e9e9;fill-opacity:1;stroke:none;stroke-width:4.56499;stroke-opacity:1"
       id="rect13134"
       width="7.8590112"
       height="0.83031327"
       x="34.139393"
       y="21.002077" />
    <rect
       style="fill:#e9e9e9;fill-opacity:1;stroke:none;stroke-width:4.56499;stroke-opacity:1"
       id="rect13136"
       width="2.6454167"
       height="7.7045345"
       x="36.012424"
       y="21.562056" />
    <path
       style="fill:#e9e9e9;fill-opacity:1;stroke:none;stroke-width:0.264583px;stroke-linecap:butt;stroke-linejoin:miter;stroke-opacity:1"
       d="m 41.998405,21.002146 1.776481,3.842543 1.641316,-3.842543 h 0.811006 l -1.873033,5.078358 v 3.108848 h -2.259224 v -3.186086 l -2.046819,-4.344662 z"
       id="path13171"
       sodipodi:nodetypes="cccccccccc" />
  </g>
</svg>
